<mxfile host="app.diagrams.net" modified="2023-03-21T14:26:12.454Z" agent="5.0 (Macintosh; Intel Mac OS X 10_15_7) AppleWebKit/537.36 (KHTML, like Gecko) Chrome/111.0.0.0 Safari/537.36" etag="frSDk6iduc35-oe6jL9_" version="21.0.2" type="github">
  <diagram id="C5RBs43oDa-KdzZeNtuy" name="Page-1">
    <mxGraphModel dx="975" dy="692" grid="1" gridSize="10" guides="1" tooltips="1" connect="1" arrows="1" fold="1" page="1" pageScale="1" pageWidth="827" pageHeight="1169" math="0" shadow="0">
      <root>
        <mxCell id="WIyWlLk6GJQsqaUBKTNV-0" />
        <mxCell id="WIyWlLk6GJQsqaUBKTNV-1" parent="WIyWlLk6GJQsqaUBKTNV-0" />
        <mxCell id="6qnPbb-Ci0l1N96irtju-7" style="edgeStyle=orthogonalEdgeStyle;rounded=0;orthogonalLoop=1;jettySize=auto;html=1;entryX=0.5;entryY=0;entryDx=0;entryDy=0;strokeColor=#788AA3;fontColor=#46495D;fillColor=#B2C9AB;" edge="1" parent="WIyWlLk6GJQsqaUBKTNV-1" source="6qnPbb-Ci0l1N96irtju-4" target="6qnPbb-Ci0l1N96irtju-6">
          <mxGeometry relative="1" as="geometry" />
        </mxCell>
        <mxCell id="6qnPbb-Ci0l1N96irtju-4" value="统一分析入口" style="rounded=1;whiteSpace=wrap;html=1;strokeColor=#788AA3;fontColor=#46495D;fillColor=#B2C9AB;" vertex="1" parent="WIyWlLk6GJQsqaUBKTNV-1">
          <mxGeometry x="115" y="120" width="160" height="30" as="geometry" />
        </mxCell>
        <mxCell id="6qnPbb-Ci0l1N96irtju-12" style="edgeStyle=orthogonalEdgeStyle;rounded=0;orthogonalLoop=1;jettySize=auto;html=1;entryX=0.5;entryY=0;entryDx=0;entryDy=0;strokeColor=#788AA3;fontColor=#46495D;fillColor=#B2C9AB;" edge="1" parent="WIyWlLk6GJQsqaUBKTNV-1" source="6qnPbb-Ci0l1N96irtju-6" target="6qnPbb-Ci0l1N96irtju-11">
          <mxGeometry relative="1" as="geometry" />
        </mxCell>
        <mxCell id="6qnPbb-Ci0l1N96irtju-6" value="可灵活配置需要执行的模块" style="rounded=1;whiteSpace=wrap;html=1;strokeColor=#6c8ebf;fillColor=#dae8fc;" vertex="1" parent="WIyWlLk6GJQsqaUBKTNV-1">
          <mxGeometry x="115" y="190" width="160" height="40" as="geometry" />
        </mxCell>
        <mxCell id="6qnPbb-Ci0l1N96irtju-20" style="edgeStyle=orthogonalEdgeStyle;rounded=0;orthogonalLoop=1;jettySize=auto;html=1;entryX=1;entryY=0.5;entryDx=0;entryDy=0;strokeColor=#788AA3;fontColor=#46495D;fillColor=#B2C9AB;" edge="1" parent="WIyWlLk6GJQsqaUBKTNV-1" source="6qnPbb-Ci0l1N96irtju-8" target="6qnPbb-Ci0l1N96irtju-14">
          <mxGeometry relative="1" as="geometry">
            <Array as="points">
              <mxPoint x="340" y="280" />
              <mxPoint x="340" y="350" />
            </Array>
          </mxGeometry>
        </mxCell>
        <mxCell id="6qnPbb-Ci0l1N96irtju-21" style="edgeStyle=orthogonalEdgeStyle;rounded=0;orthogonalLoop=1;jettySize=auto;html=1;entryX=1;entryY=0.5;entryDx=0;entryDy=0;strokeColor=#788AA3;fontColor=#46495D;fillColor=#B2C9AB;" edge="1" parent="WIyWlLk6GJQsqaUBKTNV-1" source="6qnPbb-Ci0l1N96irtju-8" target="6qnPbb-Ci0l1N96irtju-6">
          <mxGeometry relative="1" as="geometry">
            <Array as="points">
              <mxPoint x="340" y="280" />
              <mxPoint x="340" y="210" />
            </Array>
          </mxGeometry>
        </mxCell>
        <mxCell id="6qnPbb-Ci0l1N96irtju-8" value="网查数据模块化" style="rounded=1;whiteSpace=wrap;html=1;fillColor=#ffe6cc;strokeColor=#d79b00;" vertex="1" parent="WIyWlLk6GJQsqaUBKTNV-1">
          <mxGeometry x="190" y="30" width="160" height="40" as="geometry" />
        </mxCell>
        <mxCell id="6qnPbb-Ci0l1N96irtju-15" style="edgeStyle=orthogonalEdgeStyle;rounded=0;orthogonalLoop=1;jettySize=auto;html=1;entryX=0.5;entryY=0;entryDx=0;entryDy=0;strokeColor=#788AA3;fontColor=#46495D;fillColor=#B2C9AB;" edge="1" parent="WIyWlLk6GJQsqaUBKTNV-1" source="6qnPbb-Ci0l1N96irtju-11" target="6qnPbb-Ci0l1N96irtju-14">
          <mxGeometry relative="1" as="geometry" />
        </mxCell>
        <mxCell id="6qnPbb-Ci0l1N96irtju-11" value="使用工厂模式组装数据模块依赖关系，返回依赖关系wrapper" style="rounded=1;whiteSpace=wrap;html=1;strokeColor=#d6b656;fillColor=#fff2cc;" vertex="1" parent="WIyWlLk6GJQsqaUBKTNV-1">
          <mxGeometry x="90" y="260" width="210" height="40" as="geometry" />
        </mxCell>
        <mxCell id="6qnPbb-Ci0l1N96irtju-14" value="Async.beginWork()并发执行" style="rounded=1;whiteSpace=wrap;html=1;" vertex="1" parent="WIyWlLk6GJQsqaUBKTNV-1">
          <mxGeometry x="90" y="330" width="210" height="40" as="geometry" />
        </mxCell>
        <mxCell id="6qnPbb-Ci0l1N96irtju-33" style="edgeStyle=orthogonalEdgeStyle;rounded=0;orthogonalLoop=1;jettySize=auto;html=1;entryX=0.5;entryY=0;entryDx=0;entryDy=0;strokeColor=#788AA3;fontColor=#46495D;fillColor=#B2C9AB;" edge="1" parent="WIyWlLk6GJQsqaUBKTNV-1" source="6qnPbb-Ci0l1N96irtju-19" target="6qnPbb-Ci0l1N96irtju-22">
          <mxGeometry relative="1" as="geometry" />
        </mxCell>
        <mxCell id="6qnPbb-Ci0l1N96irtju-19" value="IWorker" style="html=1;whiteSpace=wrap;" vertex="1" parent="WIyWlLk6GJQsqaUBKTNV-1">
          <mxGeometry x="720" y="90" width="80" height="30" as="geometry" />
        </mxCell>
        <mxCell id="6qnPbb-Ci0l1N96irtju-34" style="edgeStyle=orthogonalEdgeStyle;rounded=0;orthogonalLoop=1;jettySize=auto;html=1;entryX=0.5;entryY=0;entryDx=0;entryDy=0;strokeColor=#788AA3;fontColor=#46495D;fillColor=#B2C9AB;" edge="1" parent="WIyWlLk6GJQsqaUBKTNV-1" source="6qnPbb-Ci0l1N96irtju-22" target="6qnPbb-Ci0l1N96irtju-27">
          <mxGeometry relative="1" as="geometry">
            <Array as="points">
              <mxPoint x="760" y="240" />
              <mxPoint x="576" y="240" />
            </Array>
          </mxGeometry>
        </mxCell>
        <mxCell id="6qnPbb-Ci0l1N96irtju-35" style="edgeStyle=orthogonalEdgeStyle;rounded=0;orthogonalLoop=1;jettySize=auto;html=1;strokeColor=#788AA3;fontColor=#46495D;fillColor=#B2C9AB;" edge="1" parent="WIyWlLk6GJQsqaUBKTNV-1" source="6qnPbb-Ci0l1N96irtju-22" target="6qnPbb-Ci0l1N96irtju-30">
          <mxGeometry relative="1" as="geometry">
            <Array as="points">
              <mxPoint x="760" y="240" />
              <mxPoint x="940" y="240" />
            </Array>
          </mxGeometry>
        </mxCell>
        <mxCell id="6qnPbb-Ci0l1N96irtju-22" value="AbstractCommonWorker" style="swimlane;fontStyle=1;align=center;verticalAlign=top;childLayout=stackLayout;horizontal=1;startSize=26;horizontalStack=0;resizeParent=1;resizeParentMax=0;resizeLast=0;collapsible=1;marginBottom=0;whiteSpace=wrap;html=1;strokeColor=#788AA3;fontColor=#46495D;fillColor=#B2C9AB;" vertex="1" parent="WIyWlLk6GJQsqaUBKTNV-1">
          <mxGeometry x="680" y="160" width="160" height="60" as="geometry" />
        </mxCell>
        <mxCell id="6qnPbb-Ci0l1N96irtju-24" value="" style="line;strokeWidth=1;fillColor=none;align=left;verticalAlign=middle;spacingTop=-1;spacingLeft=3;spacingRight=3;rotatable=0;labelPosition=right;points=[];portConstraint=eastwest;strokeColor=inherit;fontColor=#46495D;" vertex="1" parent="6qnPbb-Ci0l1N96irtju-22">
          <mxGeometry y="26" width="160" height="8" as="geometry" />
        </mxCell>
        <mxCell id="6qnPbb-Ci0l1N96irtju-25" value="action" style="text;strokeColor=none;fillColor=none;align=left;verticalAlign=top;spacingLeft=4;spacingRight=4;overflow=hidden;rotatable=0;points=[[0,0.5],[1,0.5]];portConstraint=eastwest;whiteSpace=wrap;html=1;fontColor=#46495D;" vertex="1" parent="6qnPbb-Ci0l1N96irtju-22">
          <mxGeometry y="34" width="160" height="26" as="geometry" />
        </mxCell>
        <mxCell id="6qnPbb-Ci0l1N96irtju-50" style="edgeStyle=orthogonalEdgeStyle;rounded=0;orthogonalLoop=1;jettySize=auto;html=1;entryX=0.5;entryY=0;entryDx=0;entryDy=0;strokeColor=#788AA3;fontColor=#46495D;fillColor=#B2C9AB;" edge="1" parent="WIyWlLk6GJQsqaUBKTNV-1" source="6qnPbb-Ci0l1N96irtju-27" target="6qnPbb-Ci0l1N96irtju-40">
          <mxGeometry relative="1" as="geometry" />
        </mxCell>
        <mxCell id="6qnPbb-Ci0l1N96irtju-51" style="edgeStyle=orthogonalEdgeStyle;rounded=0;orthogonalLoop=1;jettySize=auto;html=1;entryX=0.5;entryY=0;entryDx=0;entryDy=0;strokeColor=#788AA3;fontColor=#46495D;fillColor=#B2C9AB;" edge="1" parent="WIyWlLk6GJQsqaUBKTNV-1" source="6qnPbb-Ci0l1N96irtju-27" target="6qnPbb-Ci0l1N96irtju-46">
          <mxGeometry relative="1" as="geometry" />
        </mxCell>
        <mxCell id="6qnPbb-Ci0l1N96irtju-52" style="edgeStyle=orthogonalEdgeStyle;rounded=0;orthogonalLoop=1;jettySize=auto;html=1;entryX=0.488;entryY=0.038;entryDx=0;entryDy=0;entryPerimeter=0;strokeColor=#788AA3;fontColor=#46495D;fillColor=#B2C9AB;" edge="1" parent="WIyWlLk6GJQsqaUBKTNV-1" source="6qnPbb-Ci0l1N96irtju-27" target="6qnPbb-Ci0l1N96irtju-49">
          <mxGeometry relative="1" as="geometry">
            <Array as="points">
              <mxPoint x="576" y="350" />
              <mxPoint x="695" y="350" />
            </Array>
          </mxGeometry>
        </mxCell>
        <mxCell id="6qnPbb-Ci0l1N96irtju-27" value="AbstractAsyncWorker" style="swimlane;fontStyle=1;align=center;verticalAlign=top;childLayout=stackLayout;horizontal=1;startSize=26;horizontalStack=0;resizeParent=1;resizeParentMax=0;resizeLast=0;collapsible=1;marginBottom=0;whiteSpace=wrap;html=1;strokeColor=#666666;fillColor=#f5f5f5;fontColor=#333333;" vertex="1" parent="WIyWlLk6GJQsqaUBKTNV-1">
          <mxGeometry x="496" y="270" width="160" height="60" as="geometry" />
        </mxCell>
        <mxCell id="6qnPbb-Ci0l1N96irtju-28" value="" style="line;strokeWidth=1;fillColor=none;align=left;verticalAlign=middle;spacingTop=-1;spacingLeft=3;spacingRight=3;rotatable=0;labelPosition=right;points=[];portConstraint=eastwest;strokeColor=inherit;fontColor=#46495D;" vertex="1" parent="6qnPbb-Ci0l1N96irtju-27">
          <mxGeometry y="26" width="160" height="8" as="geometry" />
        </mxCell>
        <mxCell id="6qnPbb-Ci0l1N96irtju-29" value="doAsyncAction" style="text;strokeColor=none;fillColor=none;align=left;verticalAlign=top;spacingLeft=4;spacingRight=4;overflow=hidden;rotatable=0;points=[[0,0.5],[1,0.5]];portConstraint=eastwest;whiteSpace=wrap;html=1;fontColor=#46495D;" vertex="1" parent="6qnPbb-Ci0l1N96irtju-27">
          <mxGeometry y="34" width="160" height="26" as="geometry" />
        </mxCell>
        <mxCell id="6qnPbb-Ci0l1N96irtju-60" style="edgeStyle=orthogonalEdgeStyle;rounded=0;orthogonalLoop=1;jettySize=auto;html=1;entryX=0.5;entryY=0;entryDx=0;entryDy=0;strokeColor=#788AA3;fontColor=#46495D;fillColor=#B2C9AB;" edge="1" parent="WIyWlLk6GJQsqaUBKTNV-1" source="6qnPbb-Ci0l1N96irtju-30" target="6qnPbb-Ci0l1N96irtju-53">
          <mxGeometry relative="1" as="geometry" />
        </mxCell>
        <mxCell id="6qnPbb-Ci0l1N96irtju-61" style="edgeStyle=orthogonalEdgeStyle;rounded=0;orthogonalLoop=1;jettySize=auto;html=1;entryX=0.5;entryY=0;entryDx=0;entryDy=0;strokeColor=#788AA3;fontColor=#46495D;fillColor=#B2C9AB;" edge="1" parent="WIyWlLk6GJQsqaUBKTNV-1" source="6qnPbb-Ci0l1N96irtju-30" target="6qnPbb-Ci0l1N96irtju-56">
          <mxGeometry relative="1" as="geometry" />
        </mxCell>
        <mxCell id="6qnPbb-Ci0l1N96irtju-62" style="edgeStyle=orthogonalEdgeStyle;rounded=0;orthogonalLoop=1;jettySize=auto;html=1;entryX=0.538;entryY=0;entryDx=0;entryDy=0;entryPerimeter=0;strokeColor=#788AA3;fontColor=#46495D;fillColor=#B2C9AB;" edge="1" parent="WIyWlLk6GJQsqaUBKTNV-1" source="6qnPbb-Ci0l1N96irtju-30" target="6qnPbb-Ci0l1N96irtju-59">
          <mxGeometry relative="1" as="geometry">
            <Array as="points">
              <mxPoint x="940" y="350" />
              <mxPoint x="1063" y="350" />
            </Array>
          </mxGeometry>
        </mxCell>
        <mxCell id="6qnPbb-Ci0l1N96irtju-30" value="AbstractSyncWorker" style="swimlane;fontStyle=1;align=center;verticalAlign=top;childLayout=stackLayout;horizontal=1;startSize=26;horizontalStack=0;resizeParent=1;resizeParentMax=0;resizeLast=0;collapsible=1;marginBottom=0;whiteSpace=wrap;html=1;strokeColor=#d79b00;fillColor=#ffe6cc;" vertex="1" parent="WIyWlLk6GJQsqaUBKTNV-1">
          <mxGeometry x="860" y="270" width="160" height="60" as="geometry" />
        </mxCell>
        <mxCell id="6qnPbb-Ci0l1N96irtju-31" value="" style="line;strokeWidth=1;fillColor=none;align=left;verticalAlign=middle;spacingTop=-1;spacingLeft=3;spacingRight=3;rotatable=0;labelPosition=right;points=[];portConstraint=eastwest;strokeColor=inherit;fontColor=#46495D;" vertex="1" parent="6qnPbb-Ci0l1N96irtju-30">
          <mxGeometry y="26" width="160" height="8" as="geometry" />
        </mxCell>
        <mxCell id="6qnPbb-Ci0l1N96irtju-32" value="doSyncAction" style="text;strokeColor=none;fillColor=none;align=left;verticalAlign=top;spacingLeft=4;spacingRight=4;overflow=hidden;rotatable=0;points=[[0,0.5],[1,0.5]];portConstraint=eastwest;whiteSpace=wrap;html=1;fontColor=#46495D;" vertex="1" parent="6qnPbb-Ci0l1N96irtju-30">
          <mxGeometry y="34" width="160" height="26" as="geometry" />
        </mxCell>
        <mxCell id="6qnPbb-Ci0l1N96irtju-40" value="异步模块1" style="swimlane;fontStyle=1;align=center;verticalAlign=top;childLayout=stackLayout;horizontal=1;startSize=26;horizontalStack=0;resizeParent=1;resizeParentMax=0;resizeLast=0;collapsible=1;marginBottom=0;whiteSpace=wrap;html=1;strokeColor=#666666;fillColor=#f5f5f5;fontColor=#333333;" vertex="1" parent="WIyWlLk6GJQsqaUBKTNV-1">
          <mxGeometry x="390" y="370" width="106" height="60" as="geometry" />
        </mxCell>
        <mxCell id="6qnPbb-Ci0l1N96irtju-41" value="" style="line;strokeWidth=1;fillColor=none;align=left;verticalAlign=middle;spacingTop=-1;spacingLeft=3;spacingRight=3;rotatable=0;labelPosition=right;points=[];portConstraint=eastwest;strokeColor=inherit;fontColor=#46495D;" vertex="1" parent="6qnPbb-Ci0l1N96irtju-40">
          <mxGeometry y="26" width="106" height="8" as="geometry" />
        </mxCell>
        <mxCell id="6qnPbb-Ci0l1N96irtju-42" value="doAsyncAction" style="text;strokeColor=none;fillColor=none;align=left;verticalAlign=top;spacingLeft=4;spacingRight=4;overflow=hidden;rotatable=0;points=[[0,0.5],[1,0.5]];portConstraint=eastwest;whiteSpace=wrap;html=1;fontColor=#46495D;" vertex="1" parent="6qnPbb-Ci0l1N96irtju-40">
          <mxGeometry y="34" width="106" height="26" as="geometry" />
        </mxCell>
        <mxCell id="6qnPbb-Ci0l1N96irtju-46" value="异步模块2" style="swimlane;fontStyle=1;align=center;verticalAlign=top;childLayout=stackLayout;horizontal=1;startSize=26;horizontalStack=0;resizeParent=1;resizeParentMax=0;resizeLast=0;collapsible=1;marginBottom=0;whiteSpace=wrap;html=1;strokeColor=#666666;fillColor=#f5f5f5;fontColor=#333333;" vertex="1" parent="WIyWlLk6GJQsqaUBKTNV-1">
          <mxGeometry x="523" y="370" width="106" height="60" as="geometry" />
        </mxCell>
        <mxCell id="6qnPbb-Ci0l1N96irtju-47" value="" style="line;strokeWidth=1;fillColor=none;align=left;verticalAlign=middle;spacingTop=-1;spacingLeft=3;spacingRight=3;rotatable=0;labelPosition=right;points=[];portConstraint=eastwest;strokeColor=inherit;fontColor=#46495D;" vertex="1" parent="6qnPbb-Ci0l1N96irtju-46">
          <mxGeometry y="26" width="106" height="8" as="geometry" />
        </mxCell>
        <mxCell id="6qnPbb-Ci0l1N96irtju-48" value="doAsyncAction" style="text;strokeColor=none;fillColor=none;align=left;verticalAlign=top;spacingLeft=4;spacingRight=4;overflow=hidden;rotatable=0;points=[[0,0.5],[1,0.5]];portConstraint=eastwest;whiteSpace=wrap;html=1;fontColor=#46495D;" vertex="1" parent="6qnPbb-Ci0l1N96irtju-46">
          <mxGeometry y="34" width="106" height="26" as="geometry" />
        </mxCell>
        <mxCell id="6qnPbb-Ci0l1N96irtju-49" value="……" style="text;align=center;fontStyle=1;verticalAlign=middle;spacingLeft=3;spacingRight=3;strokeColor=none;rotatable=0;points=[[0,0.5],[1,0.5]];portConstraint=eastwest;html=1;fontColor=#46495D;" vertex="1" parent="WIyWlLk6GJQsqaUBKTNV-1">
          <mxGeometry x="656" y="387" width="80" height="26" as="geometry" />
        </mxCell>
        <mxCell id="6qnPbb-Ci0l1N96irtju-53" value="同步模块1" style="swimlane;fontStyle=1;align=center;verticalAlign=top;childLayout=stackLayout;horizontal=1;startSize=26;horizontalStack=0;resizeParent=1;resizeParentMax=0;resizeLast=0;collapsible=1;marginBottom=0;whiteSpace=wrap;html=1;strokeColor=#d79b00;fillColor=#ffe6cc;" vertex="1" parent="WIyWlLk6GJQsqaUBKTNV-1">
          <mxGeometry x="754" y="370" width="106" height="60" as="geometry" />
        </mxCell>
        <mxCell id="6qnPbb-Ci0l1N96irtju-54" value="" style="line;strokeWidth=1;fillColor=none;align=left;verticalAlign=middle;spacingTop=-1;spacingLeft=3;spacingRight=3;rotatable=0;labelPosition=right;points=[];portConstraint=eastwest;strokeColor=inherit;fontColor=#46495D;" vertex="1" parent="6qnPbb-Ci0l1N96irtju-53">
          <mxGeometry y="26" width="106" height="8" as="geometry" />
        </mxCell>
        <mxCell id="6qnPbb-Ci0l1N96irtju-55" value="doSyncAction" style="text;strokeColor=none;fillColor=none;align=left;verticalAlign=top;spacingLeft=4;spacingRight=4;overflow=hidden;rotatable=0;points=[[0,0.5],[1,0.5]];portConstraint=eastwest;whiteSpace=wrap;html=1;fontColor=#46495D;" vertex="1" parent="6qnPbb-Ci0l1N96irtju-53">
          <mxGeometry y="34" width="106" height="26" as="geometry" />
        </mxCell>
        <mxCell id="6qnPbb-Ci0l1N96irtju-56" value="同步模块1" style="swimlane;fontStyle=1;align=center;verticalAlign=top;childLayout=stackLayout;horizontal=1;startSize=26;horizontalStack=0;resizeParent=1;resizeParentMax=0;resizeLast=0;collapsible=1;marginBottom=0;whiteSpace=wrap;html=1;strokeColor=#d79b00;fillColor=#ffe6cc;" vertex="1" parent="WIyWlLk6GJQsqaUBKTNV-1">
          <mxGeometry x="887" y="370" width="106" height="60" as="geometry" />
        </mxCell>
        <mxCell id="6qnPbb-Ci0l1N96irtju-57" value="" style="line;strokeWidth=1;fillColor=none;align=left;verticalAlign=middle;spacingTop=-1;spacingLeft=3;spacingRight=3;rotatable=0;labelPosition=right;points=[];portConstraint=eastwest;strokeColor=inherit;fontColor=#46495D;" vertex="1" parent="6qnPbb-Ci0l1N96irtju-56">
          <mxGeometry y="26" width="106" height="8" as="geometry" />
        </mxCell>
        <mxCell id="6qnPbb-Ci0l1N96irtju-58" value="doSyncAction" style="text;strokeColor=none;fillColor=none;align=left;verticalAlign=top;spacingLeft=4;spacingRight=4;overflow=hidden;rotatable=0;points=[[0,0.5],[1,0.5]];portConstraint=eastwest;whiteSpace=wrap;html=1;fontColor=#46495D;" vertex="1" parent="6qnPbb-Ci0l1N96irtju-56">
          <mxGeometry y="34" width="106" height="26" as="geometry" />
        </mxCell>
        <mxCell id="6qnPbb-Ci0l1N96irtju-59" value="……" style="text;align=center;fontStyle=1;verticalAlign=middle;spacingLeft=3;spacingRight=3;strokeColor=none;rotatable=0;points=[[0,0.5],[1,0.5]];portConstraint=eastwest;html=1;fontColor=#46495D;" vertex="1" parent="WIyWlLk6GJQsqaUBKTNV-1">
          <mxGeometry x="1020" y="387" width="80" height="26" as="geometry" />
        </mxCell>
      </root>
    </mxGraphModel>
  </diagram>
</mxfile>
